# xmcd
#
# Track frame offsets:
#	150
#	23890
#	38952
#	59955
#	88952
#	110135
#	128362
#	148240
#	165997
#	202675
#	224755
#	243962
#
# Disc length: 3586 seconds
#
# Revision: 1
# Processed by: cddbd v1.5.2PL0 Copyright (c) Steve Scherf et al.
# Submitted via: CDmax 2.0
#
DISCID=b30e000c
DTITLE=Paul Camilleri - Just what you wanted
DYEAR=2009
DGENRE=Blues
TTITLE0=Love so strong
TTITLE1=Just what you wanted
TTITLE2=When we get to the Blues
TTITLE3=Mercy me
TTITLE4=ZZ dream
TTITLE5=Nobody's talking
TTITLE6=Beauty and the East
TTITLE7=You said, I said
TTITLE8=Gamblin' man
TTITLE9=Till my baby sys I can
TTITLE10=Dangerous moonlight
TTITLE11=The fugitive kind
EXTD=
EXTT0=
EXTT1=
EXTT2=
EXTT3=
EXTT4=
EXTT5=
EXTT6=
EXTT7=
EXTT8=
EXTT9=
EXTT10=
EXTT11=
PLAYORDER=
